<?xml version="1.0" encoding="utf-8" ?>
<svg xmlns="http://www.w3.org/2000/svg" xmlns:xlink="http://www.w3.org/1999/xlink" width="500" height="500">
	<g>
		<path fill="white" d="M89.3225 150.716C89.5386 150.022 89.9239 149.366 90.2743 148.731Q91.6013 146.277 92.9885 143.857Q94.3757 141.436 95.8222 139.051Q97.2687 136.666 98.7737 134.317Q100.279 131.968 101.841 129.656Q103.404 127.345 105.023 125.073Q106.642 122.802 108.316 120.57Q109.991 118.339 111.72 116.15Q113.449 113.961 115.232 111.815Q117.014 109.669 118.849 107.568Q120.684 105.467 122.571 103.411Q124.457 101.356 126.394 99.3479Q128.33 97.3398 130.316 95.3801Q132.301 93.4204 134.334 91.5103Q136.368 89.6002 138.447 87.7409Q140.527 85.8815 142.652 84.0741Q144.777 82.2666 146.946 80.5122Q149.115 78.7578 151.327 77.0574Q153.538 75.357 155.791 73.7117Q158.044 72.0664 160.337 70.4772Q162.63 68.8881 164.961 67.3559Q167.293 65.8238 169.661 64.3497Q172.03 62.8756 174.434 61.4604Q176.838 60.0452 179.276 58.6898Q181.714 57.3344 184.185 56.0395Q186.656 54.7447 189.159 53.5112Q191.661 52.2777 194.193 51.1064Q196.725 49.935 199.285 48.8265Q201.845 47.7181 204.431 46.6731Q207.018 45.6281 209.63 44.6473Q212.241 43.6665 214.876 42.7504Q217.511 41.8343 220.168 40.9836Q222.825 40.1328 225.502 39.3479C275.477 25.067 334.367 26.8941 380.432 52.5743C386.639 56.0346 393.071 59.7731 398.684 64.1405C406.711 70.3867 413.593 78.062 420.377 85.5947C422.361 87.797 424.668 89.9634 426.367 92.3754C428.722 95.7179 430.591 99.6522 432.49 103.273C433.335 104.884 434.434 106.454 434.935 108.214C436.602 110.904 437.436 114.164 438.387 117.162C442.584 130.386 444.092 143.459 440.874 157.113C435.546 179.716 420.065 196.528 400.74 208.439C377.377 222.841 361.532 222.22 335.763 216.078C324.16 213.312 312.447 210.357 300.559 209.162C270.972 206.189 238.676 213.683 213.384 229.243C191.36 242.792 173.3 263.866 167.248 289.392C164.765 299.866 164.275 312.215 166.518 322.775C167.387 326.868 168.848 330.871 170.069 334.872C171.933 340.982 173.929 346.75 177.316 352.225C181.352 358.75 186.079 365.137 191.441 370.635C207.609 387.213 230.436 398.831 252.859 404.056C290.7 412.875 331.616 408.092 364.862 387.349C382.745 376.192 397.539 360.913 405.998 341.415C407.764 337.344 409.348 333.237 410.348 328.9C411.081 325.726 411.299 322.343 412.292 319.248L412.896 319.155L412.372 319.044L412.673 318.783C413.349 322.84 412.154 328.163 411.723 332.273C408.937 358.889 400.524 384.285 384.877 406.164C372.313 423.732 355.584 437.595 336.662 447.855C331.42 450.697 325.627 453.605 319.933 455.378C315.947 457.055 311.483 458.843 307.25 459.725C305.388 460.359 303.247 461.086 301.303 461.397C297.053 462.454 292.092 463.946 287.733 464.086C285.657 464.882 282.941 464.979 280.732 465.242C273.388 466.118 266.253 466.59 258.849 466.647Q256.797 466.658 254.745 466.626Q252.694 466.593 250.643 466.517Q248.593 466.441 246.544 466.322Q244.496 466.203 242.45 466.04Q240.405 465.877 238.363 465.671Q236.321 465.465 234.285 465.216Q232.248 464.967 230.217 464.674Q228.186 464.382 226.161 464.047Q224.137 463.712 222.12 463.333Q220.103 462.955 218.095 462.535Q216.087 462.114 214.088 461.651Q212.089 461.188 210.1 460.682Q208.111 460.177 206.134 459.629Q204.156 459.082 202.19 458.493Q200.225 457.904 198.272 457.273Q196.32 456.642 194.381 455.97Q192.442 455.299 190.518 454.586Q188.594 453.873 186.685 453.119Q184.776 452.366 182.884 451.572Q180.992 450.779 179.117 449.945Q177.242 449.111 175.385 448.238Q173.528 447.365 171.69 446.453Q169.852 445.541 168.034 444.59Q166.216 443.639 164.418 442.649Q162.62 441.66 160.844 440.633Q159.067 439.606 157.313 438.541Q155.559 437.476 153.828 436.375Q152.096 435.273 150.389 434.136Q148.681 432.998 146.998 431.824Q145.315 430.65 143.658 429.441Q142 428.232 140.368 426.987Q138.736 425.743 137.131 424.465C130.803 419.435 124.935 413.822 119.196 408.136C109.211 398.244 102.261 388.903 94.9371 376.975C73.0139 341.27 62.7803 299.411 62.6508 257.659Q62.6405 254.587 62.7141 251.516Q62.7877 248.444 62.9452 245.376Q63.1027 242.308 63.3439 239.246Q63.5852 236.183 63.91 233.128Q64.2348 230.073 64.6429 227.028Q65.0511 223.983 65.5423 220.951Q66.0335 217.918 66.6073 214.9Q67.1812 211.882 67.8372 208.881Q68.4933 205.88 69.2311 202.897Q69.9689 199.915 70.788 196.954Q71.607 193.993 72.5066 191.056Q73.4062 188.118 74.3857 185.207Q75.3652 182.295 76.4239 179.411Q77.4826 176.527 78.6196 173.673Q79.7567 170.819 80.9713 167.997Q82.186 165.176 83.4772 162.388C84.6223 159.947 87.7853 152.267 89.3225 150.716Z"/>
		<path fill="white" d="M89.3225 150.716C89.5386 150.022 89.9239 149.366 90.2743 148.731Q91.6013 146.277 92.9885 143.857Q94.3757 141.436 95.8222 139.051Q97.2687 136.666 98.7737 134.317Q100.279 131.968 101.841 129.656Q103.404 127.345 105.023 125.073Q106.642 122.802 108.316 120.57Q109.991 118.339 111.72 116.15Q113.449 113.961 115.232 111.815Q117.014 109.669 118.849 107.568Q120.684 105.467 122.571 103.411Q124.457 101.356 126.394 99.3479Q128.33 97.3398 130.316 95.3801Q132.301 93.4204 134.334 91.5103Q136.368 89.6002 138.447 87.7409Q140.527 85.8815 142.652 84.0741Q144.777 82.2666 146.946 80.5122Q149.115 78.7578 151.327 77.0574Q153.538 75.357 155.791 73.7117Q158.044 72.0664 160.337 70.4772Q162.63 68.8881 164.961 67.3559Q167.293 65.8238 169.661 64.3497Q172.03 62.8756 174.434 61.4604Q176.838 60.0452 179.276 58.6898Q181.714 57.3344 184.185 56.0395Q186.656 54.7447 189.159 53.5112Q191.661 52.2777 194.193 51.1064Q196.725 49.935 199.285 48.8265Q201.845 47.7181 204.431 46.6731Q207.018 45.6281 209.63 44.6473Q212.241 43.6665 214.876 42.7504Q217.511 41.8343 220.168 40.9836Q222.825 40.1328 225.502 39.3479C275.477 25.067 334.367 26.8941 380.432 52.5743C386.639 56.0346 393.071 59.7731 398.684 64.1405C406.711 70.3867 413.593 78.062 420.377 85.5947C422.361 87.797 424.668 89.9634 426.367 92.3754C428.722 95.7179 430.591 99.6522 432.49 103.273C433.335 104.884 434.434 106.454 434.935 108.214C434.919 108.359 434.898 108.504 434.887 108.649C434.707 110.99 441.424 124.618 439.759 127.11C439.132 127.208 438.846 127.393 438.497 127.951C438.413 128.086 438.287 128.395 438.223 128.536C437.196 130.767 430.251 132.981 427.805 133.825C426.528 134.265 418.282 132.345 416.141 132.082C413.029 131.701 409.677 131.635 406.543 131.663C404.25 131.684 401.751 132.133 399.523 131.623C398.46 131.38 397.298 131.69 396.229 131.483C394.352 131.12 391.871 129.481 390.108 128.641C389.421 128.314 388.936 128.179 388.181 128.209C388.052 128.214 387.924 128.216 387.795 128.223C386.527 128.287 385.313 128.602 384.123 129.028C382.995 129.432 381.03 129.092 379.814 129.082C374.792 129.043 372.667 132.82 369.027 135.553C367.895 136.403 366.667 137.112 365.293 137.484C361.461 138.523 357.624 138.338 353.743 138.798C350.666 139.162 347.258 139.951 344.284 140.814C343.218 141.124 342.201 141.623 341.135 141.901C339.312 142.376 337.379 142.373 335.588 143.005C333.846 143.619 329.366 142.899 327.243 142.895C322.871 142.886 318.05 142.721 313.74 143.277C307.245 144.114 301.123 147.471 294.61 148.204C289.64 148.763 284.486 148.491 279.541 149.14C274.526 149.799 269.541 151.318 264.472 151.687C260.523 151.975 256.456 152.109 252.497 152.117C249.868 152.121 246.998 151.901 244.393 152.214C239.098 152.849 233.997 155.466 228.698 156.16C223.919 156.785 219.037 157.039 214.235 157.466C212.072 157.659 209.925 158.008 207.761 158.187C204.988 158.415 202.164 158.421 199.409 158.799C192.792 159.706 186.413 161.826 179.731 162.653C175.697 163.152 171.523 163.212 167.468 163.522C164.936 163.716 162.425 164.195 159.89 164.336C157.007 164.495 153.966 164.084 151.119 164.477C148.103 164.894 145.151 166.026 142.12 166.533C138.366 167.161 134.413 167.112 130.613 167.53C127.811 167.838 124.669 168.646 122.161 168.896C117.723 169.339 113.48 168.827 109.02 169.786C104.148 170.833 100.183 174.995 94.6561 174.362Q93.9287 174.277 93.2273 174.066Q92.5259 173.855 91.8718 173.526C89.0804 172.152 88.7693 170.469 85.397 169.822Q85.191 169.153 85.0076 168.478L84.5201 168.352C84.1205 168.685 83.7332 169.021 83.3565 169.379C83.0085 169.246 82.8681 169.16 82.587 168.935C81.3625 169.755 78.1664 177.038 77.7245 178.63L77.3533 178.937C77.4937 178.988 77.6339 178.833 77.7711 178.774L77.3555 178.196C79.624 172.736 81.9476 167.217 84.4549 161.864C85.9657 158.638 87.7854 155.453 89.0793 152.141C89.2769 151.635 89.3694 151.255 89.3225 150.716Z"/>
		<path fill="white" d="M307.25 459.725C307.911 458.288 309.928 458.722 311.161 458.144C311.881 457.806 312.597 457.068 313.198 456.547L313.381 456.779L313.412 456.349C313.893 456.04 315.002 456.374 315.673 456.078C315.709 455.681 315.707 455.386 315.932 455.041C316.118 454.754 316.354 454.786 316.666 454.708C318.169 455.639 318.26 455.176 319.829 454.837L319.933 455.378C315.947 457.055 311.483 458.843 307.25 459.725Z"/>
		<path fill="white" d="M287.733 464.086L287.713 463.697C288.216 463.612 288.732 463.496 289.238 463.443C290.358 463.327 290.682 462.874 291.641 462.432C292.33 462.114 293.09 462.287 293.786 462.515C293.841 462.533 293.893 462.56 293.946 462.582C294.491 462.027 294.957 461.844 295.688 461.585L295.96 461.491L295.874 461.496C296.662 461.322 297.403 461.157 298.215 461.194C298.568 461.21 298.892 461.229 299.246 461.205C300.04 461.149 300.533 461.178 301.303 461.397C297.053 462.454 292.092 463.946 287.733 464.086Z"/>
		<path fill="white" d="M288.14 295.59C292.309 295.255 296.708 296.619 300.035 299.133C302.62 301.087 304.661 304.112 305.059 307.376C305.418 310.323 304.263 313.278 302.416 315.545C299.298 319.372 294.537 320.863 289.811 321.41C285.644 321.396 281.295 320.18 277.936 317.662C275.328 315.707 273.149 312.649 272.755 309.362C272.427 306.624 273.565 303.92 275.22 301.79C278.382 297.721 283.224 296.153 288.14 295.59Z"/>
		<path fill="white" d="M224.998 295.59C228.862 295.227 233.039 296.382 236.276 298.476C239.198 300.366 241.655 303.088 242.338 306.601C242.863 309.304 242.186 312.037 240.659 314.305C237.861 318.46 233.014 320.386 228.278 321.257C223.968 321.66 219.663 320.72 216.053 318.261C213.244 316.348 210.924 313.258 210.371 309.855C209.898 306.94 210.931 303.856 212.68 301.529C215.669 297.552 220.306 296.228 224.998 295.59Z"/>
		<path fill="white" d="M348.657 295.82C352.863 295.43 356.74 295.897 360.5 297.907C363.684 299.609 366.221 302.246 367.204 305.801C367.931 308.433 367.628 311.071 366.221 313.422C363.767 317.524 359.412 319.748 354.943 320.921C350.302 321.608 345.496 320.881 341.501 318.311C338.525 316.395 336.258 313.392 335.593 309.873C335.055 307.026 336.014 304.172 337.672 301.857C340.285 298.21 344.377 296.53 348.657 295.82Z"/>
	</g>
	<g/>
</svg>

